<?xml version="1.0" encoding="utf-8"?>
<!-- Generator: Adobe Illustrator 16.0.0, SVG Export Plug-In . SVG Version: 6.00 Build 0)  -->
<!DOCTYPE svg PUBLIC "-//W3C//DTD SVG 1.1//EN" "http://www.w3.org/Graphics/SVG/1.1/DTD/svg11.dtd">
<svg version="1.1" id="Calque_1" xmlns="http://www.w3.org/2000/svg" xmlns:xlink="http://www.w3.org/1999/xlink" x="0px" y="0px"
	 width="16.182px" height="16.353px" viewBox="0 0 16.182 16.353" enable-background="new 0 0 16.182 16.353" xml:space="preserve">
<path fill-rule="evenodd" clip-rule="evenodd" fill="#00ABB8" d="M15.953,14.686l-1.246,1.376c-0.339,0.374-0.93,0.391-1.321,0.036
	l-3.034-2.746c-0.989,0.535-2.104,0.867-3.305,0.867C3.154,14.219,0,11.036,0,7.109S3.154,0,7.047,0s7.047,3.183,7.047,7.109
	c0,1.362-0.398,2.624-1.058,3.704l2.821,2.555C16.248,13.721,16.291,14.311,15.953,14.686z M7.047,2.375
	c-2.649,0-4.797,2.147-4.797,4.797c0,2.65,2.147,4.797,4.797,4.797s4.797-2.147,4.797-4.797C11.844,4.522,9.696,2.375,7.047,2.375z"
	/>
</svg>
